<?xml version="1.0" encoding="UTF-8"?>
<svg width="483px" height="568px" viewBox="0 0 483 568" version="1.1" xmlns="http://www.w3.org/2000/svg" xmlns:xlink="http://www.w3.org/1999/xlink">
    <title>Artboard</title>
    <defs>
        <radialGradient cx="7.50267903e-15%" cy="40.2965054%" fx="7.50267903e-15%" fy="40.2965054%" r="112.697858%" gradientTransform="translate(0.000000,0.402965),scale(1.000000,0.445530),rotate(180.000000),scale(1.000000,0.972257),translate(-0.000000,-0.402965)" id="radialGradient-1">
            <stop stop-color="#9DD7EB" offset="0%"></stop>
            <stop stop-color="#C1E6F3" stop-opacity="0.872678103" offset="39.0570367%"></stop>
            <stop stop-color="#FFFFFF" stop-opacity="0" offset="100%"></stop>
        </radialGradient>
        <radialGradient cx="67.1095702%" cy="42.1107263%" fx="67.1095702%" fy="42.1107263%" r="88.9743851%" gradientTransform="translate(0.671096,0.421107),scale(1.000000,0.651540),rotate(93.031299),scale(1.000000,0.929880),translate(-0.671096,-0.421107)" id="radialGradient-2">
            <stop stop-color="#ACFFC2" offset="0%"></stop>
            <stop stop-color="#FFFFFF" stop-opacity="0" offset="100%"></stop>
            <stop stop-color="#FFFFFF" stop-opacity="0" offset="100%"></stop>
        </radialGradient>
    </defs>
    <g id="Artboard" stroke="none" stroke-width="1" fill="none" fill-rule="evenodd">
        <path d="M357.337941,23.7105431 C357.337941,64.7796236 341.067317,94.2107005 308.526069,112.003774 C259.714197,138.693384 242.5,179.871852 242.5,226.235539 C242.5,257.144664 242.5,362.838211 242.5,543.316179 L474,543.316179 L474,23.7105431 L357.337941,23.7105431 Z" id="Path" fill="url(#radialGradient-1)"></path>
        <path d="M357.336,23.9995431 L357.337941,23.7105431 C357.337941,64.7796236 341.067317,94.2107005 308.526069,112.003774 C259.714197,138.693384 242.5,179.871852 242.5,226.235539 L242.5,542.999543 L19,543 L19,24 L357.336,23.9995431 Z" id="Combined-Shape" fill="url(#radialGradient-2)"></path>
        <text id="pid_t-pid-=-fork()" font-family="SFMono-Bold, SF Mono" font-size="16" font-weight="bold" fill="#0D0D0D">
            <tspan x="151.984375" y="85">pid_t pid = fork()</tspan>
        </text>
        <text id="if-(pid-==-0)" font-family="SFMono-Bold, SF Mono" font-size="16" font-weight="bold" fill="#0D0D0D">
            <tspan x="58.7109375" y="200">if (pid == 0)</tspan>
        </text>
        <text id="pid-=-0" font-family="Helvetica" font-size="16" font-weight="normal" fill="#979797">
            <tspan x="327.757812" y="128">pid = 0</tspan>
        </text>
        <text id="pid-=-67392" font-family="Helvetica" font-size="16" font-weight="normal" fill="#979797">
            <tspan x="79.9609375" y="128">pid = 67392</tspan>
        </text>
        <text id="67391" font-family="Helvetica" font-size="16" font-weight="normal" fill="#979797">
            <tspan x="61.7539062" y="303">67391</tspan>
        </text>
        <text id="parent" font-family="Helvetica-Bold, Helvetica" font-size="16" font-weight="bold" fill="#979797">
            <tspan x="79.5507812" y="109">parent</tspan>
        </text>
        <text id="child" font-family="Helvetica-Bold, Helvetica" font-size="16" font-weight="bold" fill="#979797">
            <tspan x="338.332031" y="109">child</tspan>
        </text>
        <text id="no" font-family="Helvetica" font-size="16" font-weight="normal" fill="#979797">
            <tspan x="84.1015625" y="232">no</tspan>
        </text>
        <text id="if-(pid-==-0)" font-family="SFMono-Bold, SF Mono" font-size="16" font-weight="bold" fill="#0D0D0D">
            <tspan x="301.710938" y="200">if (pid == 0)</tspan>
        </text>
        <text id="getpid();" font-family="SFMono-Bold, SF Mono" font-size="16" font-weight="bold" fill="#0D0D0D">
            <tspan x="78.4921875" y="271">getpid();</tspan>
        </text>
        <text id="wait(NULL);" font-family="SFMono-Bold, SF Mono" font-size="16" font-weight="bold" fill="#0D0D0D">
            <tspan x="68.6015625" y="346">wait(NULL);</tspan>
        </text>
        <path id="Line" d="M224.131597,98.3433278 C224.738469,99.1993787 224.576913,100.368818 223.786654,101.031323 L223.656672,101.131597 L136.736,162.751 L142.5192,170.909517 L116,175 L128.639133,151.33035 L134.422,159.488 L221.343328,97.8684028 C222.244434,97.2295904 223.492785,97.4422216 224.131597,98.3433278 Z" fill="#979797" fill-rule="nonzero"></path>
        <path id="Line" d="M122.478949,206.500111 C123.533252,206.489013 124.405595,207.295753 124.492833,208.329752 L124.499889,208.478949 L124.747,231.98 L134.746718,231.875021 L123,256 L110.748047,232.127638 L120.747,232.022 L120.500111,208.521051 C120.488484,207.416543 121.37444,206.511737 122.478949,206.500111 Z" fill="#979797" fill-rule="nonzero"></path>
        <text id="printf();" font-family="SFMono-Bold, SF Mono" font-size="16" font-weight="bold" fill="#0D0D0D">
            <tspan x="312.492188" y="271">printf();</tspan>
        </text>
        <text id="return-0;" font-family="SFMono-Bold, SF Mono" font-size="16" font-weight="bold" fill="#0D0D0D">
            <tspan x="311.492188" y="346">return 0;</tspan>
        </text>
        <text id="return-0;" font-family="SFMono-Bold, SF Mono" font-size="16" font-weight="bold" fill="#0D0D0D">
            <tspan x="79.4921875" y="513">return 0;</tspan>
        </text>
        <path id="Line" d="M356.478949,206.500111 C357.533252,206.489013 358.405595,207.295753 358.492833,208.329752 L358.499889,208.478949 L358.747,231.98 L368.746718,231.875021 L357,256 L344.748047,232.127638 L354.747,232.022 L354.500111,208.521051 C354.488484,207.416543 355.37444,206.511737 356.478949,206.500111 Z" fill="#979797" fill-rule="nonzero"></path>
        <path id="Line" d="M355.478949,277.500111 C356.533252,277.489013 357.405595,278.295753 357.492833,279.329752 L357.499889,279.478949 L357.747,302.98 L367.746718,302.875021 L356,327 L343.748047,303.127638 L353.747,303.022 L353.500111,279.521051 C353.488484,278.416543 354.37444,277.511737 355.478949,277.500111 Z" fill="#979797" fill-rule="nonzero"></path>
        <path id="Line" d="M122.478949,277.500111 C123.533252,277.489013 124.405595,278.295753 124.492833,279.329752 L124.499889,279.478949 L124.747,302.98 L134.746718,302.875021 L123,327 L110.748047,303.127638 L120.747,303.022 L120.500111,279.521051 C120.488484,278.416543 121.37444,277.511737 122.478949,277.500111 Z" fill="#979797" fill-rule="nonzero"></path>
        <path id="Line" d="M122.492157,361.500015 C123.546511,361.495881 124.413507,362.308365 124.493914,363.342917 L124.499985,363.492157 L124.905,466.992 L134.905791,466.953126 L123,491 L110.905975,467.047243 L120.905,467.008 L120.500015,363.507843 C120.495684,362.403282 121.387596,361.504347 122.492157,361.500015 Z" fill="#979797" fill-rule="nonzero"></path>
        <path id="Line" d="M367.131597,98.3433278 C367.738469,99.1993787 367.576913,100.368818 366.786654,101.031323 L366.656672,101.131597 L279.736,162.751 L285.5192,170.909517 L259,175 L271.639133,151.33035 L277.422,159.488 L364.343328,97.8684028 C365.244434,97.2295904 366.492785,97.4422216 367.131597,98.3433278 Z" transform="translate(312.500000, 137.000000) scale(-1, 1) translate(-312.500000, -137.000000) " fill="#979797" fill-rule="nonzero"></path>
        <text id="yes" font-family="Helvetica" font-size="16" font-weight="normal" fill="#979797">
            <tspan x="373.550781" y="232">yes</tspan>
        </text>
        <path d="M358.25,353.843948 C358.25,353.843948 358.25,365.667738 358.25,389.315317 C358.25,424.786687 122.5,387.921098 123,431.659175 C123.333333,460.817893 123.25,478.444554 122.75,484.539158" id="Path-2" stroke="#979797" stroke-width="4"></path>
    </g>
</svg>