<?xml version="1.0" encoding="UTF-8"?>
<svg width="739px" height="412px" viewBox="0 0 739 412" version="1.1" xmlns="http://www.w3.org/2000/svg" xmlns:xlink="http://www.w3.org/1999/xlink">
    <title>@2xMedium</title>
    <defs>
        <path d="M62.6652538,39 L189.334746,39 C195.129618,39 197.230979,39.6033665 199.349497,40.7363626 C201.468016,41.8693587 203.130641,43.5319844 204.263637,45.6505029 C205.396634,47.7690214 206,49.870382 206,55.6652538 L206,225.334746 C206,231.129618 205.396634,233.230979 204.263637,235.349497 C203.130641,237.468016 201.468016,239.130641 199.349497,240.263637 C197.230979,241.396634 195.129618,242 189.334746,242 L62.6652538,242 C56.870382,242 54.7690214,241.396634 52.6505029,240.263637 C50.5319844,239.130641 48.8693587,237.468016 47.7363626,235.349497 C46.6033665,233.230979 46,231.129618 46,225.334746 L46,55.6652538 C46,49.870382 46.6033665,47.7690214 47.7363626,45.6505029 C48.8693587,43.5319844 50.5319844,41.8693587 52.6505029,40.7363626 C54.7690214,39.6033665 56.870382,39 62.6652538,39 Z" id="path-1"></path>
        <mask id="mask-2" maskContentUnits="userSpaceOnUse" maskUnits="objectBoundingBox" x="0" y="0" width="160" height="203" fill="white">
            <use xlink:href="#path-1"></use>
        </mask>
        <path d="M240.665254,39 L367.334746,39 C373.129618,39 375.230979,39.6033665 377.349497,40.7363626 C379.468016,41.8693587 381.130641,43.5319844 382.263637,45.6505029 C383.396634,47.7690214 384,49.870382 384,55.6652538 L384,225.334746 C384,231.129618 383.396634,233.230979 382.263637,235.349497 C381.130641,237.468016 379.468016,239.130641 377.349497,240.263637 C375.230979,241.396634 373.129618,242 367.334746,242 L240.665254,242 C234.870382,242 232.769021,241.396634 230.650503,240.263637 C228.531984,239.130641 226.869359,237.468016 225.736363,235.349497 C224.603366,233.230979 224,231.129618 224,225.334746 L224,55.6652538 C224,49.870382 224.603366,47.7690214 225.736363,45.6505029 C226.869359,43.5319844 228.531984,41.8693587 230.650503,40.7363626 C232.769021,39.6033665 234.870382,39 240.665254,39 Z" id="path-3"></path>
        <mask id="mask-4" maskContentUnits="userSpaceOnUse" maskUnits="objectBoundingBox" x="0" y="0" width="160" height="203" fill="white">
            <use xlink:href="#path-3"></use>
        </mask>
        <path d="M418.665254,39 L545.334746,39 C551.129618,39 553.230979,39.6033665 555.349497,40.7363626 C557.468016,41.8693587 559.130641,43.5319844 560.263637,45.6505029 C561.396634,47.7690214 562,49.870382 562,55.6652538 L562,225.334746 C562,231.129618 561.396634,233.230979 560.263637,235.349497 C559.130641,237.468016 557.468016,239.130641 555.349497,240.263637 C553.230979,241.396634 551.129618,242 545.334746,242 L418.665254,242 C412.870382,242 410.769021,241.396634 408.650503,240.263637 C406.531984,239.130641 404.869359,237.468016 403.736363,235.349497 C402.603366,233.230979 402,231.129618 402,225.334746 L402,55.6652538 C402,49.870382 402.603366,47.7690214 403.736363,45.6505029 C404.869359,43.5319844 406.531984,41.8693587 408.650503,40.7363626 C410.769021,39.6033665 412.870382,39 418.665254,39 Z" id="path-5"></path>
        <mask id="mask-6" maskContentUnits="userSpaceOnUse" maskUnits="objectBoundingBox" x="0" y="0" width="160" height="203" fill="white">
            <use xlink:href="#path-5"></use>
        </mask>
    </defs>
    <g id="Medium" stroke="none" stroke-width="1" fill="none" fill-rule="evenodd">
        <path d="M62.6652538,320 L671.334746,320 C677.129618,320 679.230979,320.603366 681.349497,321.736363 C683.468016,322.869359 685.130641,324.531984 686.263637,326.650503 C687.396634,328.769021 688,330.870382 688,336.665254 L688,356.334746 C688,362.129618 687.396634,364.230979 686.263637,366.349497 C685.130641,368.468016 683.468016,370.130641 681.349497,371.263637 C679.230979,372.396634 677.129618,373 671.334746,373 L62.6652538,373 C56.870382,373 54.7690214,372.396634 52.6505029,371.263637 C50.5319844,370.130641 48.8693587,368.468016 47.7363626,366.349497 C46.6033665,364.230979 46,362.129618 46,356.334746 L46,336.665254 C46,330.870382 46.6033665,328.769021 47.7363626,326.650503 C48.8693587,324.531984 50.5319844,322.869359 52.6505029,321.736363 C54.7690214,320.603366 56.870382,320 62.6652538,320 Z" id="Rectangle" fill="#D8D8D8"></path>
        <path d="M671.334746,260 C676.563224,260 678.487305,260.473699 680.406299,261.499989 C682.171126,262.443828 683.556172,263.828874 684.500011,265.593701 C685.526301,267.512695 686,269.436776 686,274.665254 L686,274.665254 L686,294.334746 C686,299.563224 685.526301,301.487305 684.500011,303.406299 C683.556172,305.171126 682.171126,306.556172 680.406299,307.500011 C678.487305,308.526301 676.563224,309 671.334746,309 L671.334746,309 L62.6652538,309 C57.4367764,309 55.5126953,308.526301 53.5937006,307.500011 C51.8288744,306.556172 50.4438284,305.171126 49.499989,303.406299 C48.4736994,301.487305 48,299.563224 48,294.334746 L48,294.334746 L48,274.665254 C48,269.436776 48.4736994,267.512695 49.499989,265.593701 C50.4438284,263.828874 51.8288744,262.443828 53.5937006,261.499989 C55.5126953,260.473699 57.4367764,260 62.6652538,260 L62.6652538,260 Z" id="Rectangle" stroke="#A0DDFF" stroke-width="4"></path>
        <path d="M596.665254,41 L671.334746,41 C676.563224,41 678.487305,41.4736994 680.406299,42.499989 C682.171126,43.4438284 683.556172,44.8288744 684.500011,46.5937006 C685.526301,48.5126953 686,50.4367764 686,55.6652538 L686,55.6652538 L686,225.334746 C686,230.563224 685.526301,232.487305 684.500011,234.406299 C683.556172,236.171126 682.171126,237.556172 680.406299,238.500011 C678.487305,239.526301 676.563224,240 671.334746,240 L671.334746,240 L596.665254,240 C591.436776,240 589.512695,239.526301 587.593701,238.500011 C585.828874,237.556172 584.443828,236.171126 583.499989,234.406299 C582.473699,232.487305 582,230.563224 582,225.334746 L582,225.334746 L582,55.6652538 C582,50.4367764 582.473699,48.5126953 583.499989,46.5937006 C584.443828,44.8288744 585.828874,43.4438284 587.593701,42.499989 C589.512695,41.4736994 591.436776,41 596.665254,41 L596.665254,41 Z" id="Rectangle" stroke="#A0DDFF" stroke-width="4"></path>
        <path d="M184.0701,117.001 C186.82678,117.018377 187.900901,117.263507 188.964185,117.832157 C189.914197,118.340229 190.659771,119.085803 191.167843,120.035815 C191.758365,121.139995 192,122.25586 192,125.255541 L192,125.255541 L192,157.744459 C192,160.74414 191.758365,161.860005 191.167843,162.964185 C190.659771,163.914197 189.914197,164.659771 188.964185,165.167843 C187.860005,165.758365 186.74414,166 183.744459,166 L183.744459,166 L67.2555408,166 C64.2558603,166 63.1399947,165.758365 62.0358149,165.167843 C61.0858034,164.659771 60.3402289,163.914197 59.8321572,162.964185 C59.2416354,161.860005 59,160.74414 59,157.744459 L59.0009998,124.9299 C59.0183775,122.17322 59.2635066,121.099099 59.8321572,120.035815 C60.3402289,119.085803 61.0858034,118.340229 62.0358149,117.832157 C63.1399947,117.241635 64.2558603,117 67.2555408,117 Z" id="Rectangle" stroke="#A0DDFF" stroke-width="4"></path>
        <path d="M184.0701,54.0009998 C186.82678,54.0183775 187.900901,54.2635066 188.964185,54.8321572 C189.914197,55.3402289 190.659771,56.0858034 191.167843,57.0358149 C191.758365,58.1399947 192,59.2558603 192,62.2555408 L192,62.2555408 L192,94.7444592 C192,97.7441397 191.758365,98.8600053 191.167843,99.9641851 C190.659771,100.914197 189.914197,101.659771 188.964185,102.167843 C187.860005,102.758365 186.74414,103 183.744459,103 L183.744459,103 L67.2555408,103 C64.2558603,103 63.1399947,102.758365 62.0358149,102.167843 C61.0858034,101.659771 60.3402289,100.914197 59.8321572,99.9641851 C59.2416354,98.8600053 59,97.7441397 59,94.7444592 L59.0009998,61.9299002 C59.0183775,59.1732196 59.2635066,58.0990992 59.8321572,57.0358149 C60.3402289,56.0858034 61.0858034,55.3402289 62.0358149,54.8321572 C63.1399947,54.2416354 64.2558603,54 67.2555408,54 Z" id="Rectangle" stroke="#A0DDFF" stroke-width="4"></path>
        <use id="Rectangle" stroke="#37C8DA" mask="url(#mask-2)" stroke-width="4" stroke-dasharray="4" xlink:href="#path-1"></use>
        <text id="Hardware-/-Infrastru" font-family="HelveticaNeue-Bold, Helvetica Neue" font-size="16" font-weight="bold" letter-spacing="0.106666667" fill="#0D0D0D">
            <tspan x="269.058667" y="353">Hardware / Infrastructure</tspan>
        </text>
        <text id="Hypervisor-(OS-Kerne" font-family="HelveticaNeue, Helvetica Neue" font-size="16" font-weight="normal" letter-spacing="0.106666667" fill="#0D0D0D">
            <tspan x="219.789333" y="291">Hypervisor (OS Kernel w/ KVM, Hyper-V)</tspan>
        </text>
        <text id="User-Space-Manager-(" font-family="HelveticaNeue, Helvetica Neue" font-size="16" font-weight="normal" letter-spacing="0.106666667" fill="#0D0D0D">
            <tspan x="591.586016" y="125">User Space </tspan>
            <tspan x="601.962016" y="143">Manager</tspan>
            <tspan x="605.567349" y="161">(QEMU,</tspan>
            <tspan x="601.370016" y="179">VMWare)</tspan>
        </text>
        <path d="M67.2555408,177 L183.744459,177 C187.310534,177 188.603679,177.371302 189.907383,178.068531 C191.211087,178.765759 192.234241,179.788913 192.931469,181.092617 C193.628698,182.396321 194,183.689466 194,187.255541 L194,219.744459 C194,223.310534 193.628698,224.603679 192.931469,225.907383 C192.234241,227.211087 191.211087,228.234241 189.907383,228.931469 C188.603679,229.628698 187.310534,230 183.744459,230 L67.2555408,230 C63.6894658,230 62.3963209,229.628698 61.0926172,228.931469 C59.7889135,228.234241 58.7657592,227.211087 58.0685308,225.907383 C57.3713024,224.603679 57,223.310534 57,219.744459 L57,187.255541 C57,183.689466 57.3713024,182.396321 58.0685308,181.092617 C58.7657592,179.788913 59.7889135,178.765759 61.0926172,178.068531 C62.3963209,177.371302 63.6894658,177 67.2555408,177 Z" id="Rectangle" fill="#A0DDFF"></path>
        <text id="OS-Kernel" font-family="HelveticaNeue, Helvetica Neue" font-size="14" font-weight="normal" letter-spacing="0.0933333333" fill="#0D0D0D">
            <tspan x="93.688" y="209">OS Kernel</tspan>
        </text>
        <text id="/bin-/lib-/etc" font-family="HelveticaNeue, Helvetica Neue" font-size="14" font-weight="normal" letter-spacing="0.0933333333" fill="#0D0D0D">
            <tspan x="84.8826667" y="146">/bin /lib /etc</tspan>
        </text>
        <text id="Application" font-family="HelveticaNeue, Helvetica Neue" font-size="14" font-weight="normal" letter-spacing="0.0933333333" fill="#0D0D0D">
            <tspan x="90.3536667" y="83">Application</tspan>
        </text>
        <path d="M362.0701,117.001 C364.82678,117.018377 365.900901,117.263507 366.964185,117.832157 C367.914197,118.340229 368.659771,119.085803 369.167843,120.035815 C369.758365,121.139995 370,122.25586 370,125.255541 L370,125.255541 L370,157.744459 C370,160.74414 369.758365,161.860005 369.167843,162.964185 C368.659771,163.914197 367.914197,164.659771 366.964185,165.167843 C365.860005,165.758365 364.74414,166 361.744459,166 L361.744459,166 L245.255541,166 C242.25586,166 241.139995,165.758365 240.035815,165.167843 C239.085803,164.659771 238.340229,163.914197 237.832157,162.964185 C237.241635,161.860005 237,160.74414 237,157.744459 L237.001,124.9299 C237.018377,122.17322 237.263507,121.099099 237.832157,120.035815 C238.340229,119.085803 239.085803,118.340229 240.035815,117.832157 C241.139995,117.241635 242.25586,117 245.255541,117 Z" id="Rectangle" stroke="#A0FFB7" stroke-width="4"></path>
        <path d="M362.0701,54.0009998 C364.82678,54.0183775 365.900901,54.2635066 366.964185,54.8321572 C367.914197,55.3402289 368.659771,56.0858034 369.167843,57.0358149 C369.758365,58.1399947 370,59.2558603 370,62.2555408 L370,62.2555408 L370,94.7444592 C370,97.7441397 369.758365,98.8600053 369.167843,99.9641851 C368.659771,100.914197 367.914197,101.659771 366.964185,102.167843 C365.860005,102.758365 364.74414,103 361.744459,103 L361.744459,103 L245.255541,103 C242.25586,103 241.139995,102.758365 240.035815,102.167843 C239.085803,101.659771 238.340229,100.914197 237.832157,99.9641851 C237.241635,98.8600053 237,97.7441397 237,94.7444592 L237.001,61.9299002 C237.018377,59.1732196 237.263507,58.0990992 237.832157,57.0358149 C238.340229,56.0858034 239.085803,55.3402289 240.035815,54.8321572 C241.139995,54.2416354 242.25586,54 245.255541,54 Z" id="Rectangle" stroke="#A0FFB7" stroke-width="4"></path>
        <use id="Rectangle" stroke="#37C8DA" mask="url(#mask-4)" stroke-width="4" stroke-dasharray="4" xlink:href="#path-3"></use>
        <path d="M245.255541,177 L361.744459,177 C365.310534,177 366.603679,177.371302 367.907383,178.068531 C369.211087,178.765759 370.234241,179.788913 370.931469,181.092617 C371.628698,182.396321 372,183.689466 372,187.255541 L372,219.744459 C372,223.310534 371.628698,224.603679 370.931469,225.907383 C370.234241,227.211087 369.211087,228.234241 367.907383,228.931469 C366.603679,229.628698 365.310534,230 361.744459,230 L245.255541,230 C241.689466,230 240.396321,229.628698 239.092617,228.931469 C237.788913,228.234241 236.765759,227.211087 236.068531,225.907383 C235.371302,224.603679 235,223.310534 235,219.744459 L235,187.255541 C235,183.689466 235.371302,182.396321 236.068531,181.092617 C236.765759,179.788913 237.788913,178.765759 239.092617,178.068531 C240.396321,177.371302 241.689466,177 245.255541,177 Z" id="Rectangle" fill="#A0FFB7"></path>
        <text id="OS-Kernel" font-family="HelveticaNeue, Helvetica Neue" font-size="14" font-weight="normal" letter-spacing="0.0933333333" fill="#0D0D0D">
            <tspan x="271.688" y="209">OS Kernel</tspan>
        </text>
        <text id="/bin-/lib-/etc" font-family="HelveticaNeue, Helvetica Neue" font-size="14" font-weight="normal" letter-spacing="0.0933333333" fill="#0D0D0D">
            <tspan x="262.882667" y="146">/bin /lib /etc</tspan>
        </text>
        <text id="Application" font-family="HelveticaNeue, Helvetica Neue" font-size="14" font-weight="normal" letter-spacing="0.0933333333" fill="#0D0D0D">
            <tspan x="268.353667" y="83">Application</tspan>
        </text>
        <path d="M540.0701,117.001 C542.82678,117.018377 543.900901,117.263507 544.964185,117.832157 C545.914197,118.340229 546.659771,119.085803 547.167843,120.035815 C547.758365,121.139995 548,122.25586 548,125.255541 L548,125.255541 L548,157.744459 C548,160.74414 547.758365,161.860005 547.167843,162.964185 C546.659771,163.914197 545.914197,164.659771 544.964185,165.167843 C543.860005,165.758365 542.74414,166 539.744459,166 L539.744459,166 L423.255541,166 C420.25586,166 419.139995,165.758365 418.035815,165.167843 C417.085803,164.659771 416.340229,163.914197 415.832157,162.964185 C415.241635,161.860005 415,160.74414 415,157.744459 L415.001,124.9299 C415.018377,122.17322 415.263507,121.099099 415.832157,120.035815 C416.340229,119.085803 417.085803,118.340229 418.035815,117.832157 C419.139995,117.241635 420.25586,117 423.255541,117 Z" id="Rectangle" stroke="#FFA0BB" stroke-width="4"></path>
        <path d="M540.0701,54.0009998 C542.82678,54.0183775 543.900901,54.2635066 544.964185,54.8321572 C545.914197,55.3402289 546.659771,56.0858034 547.167843,57.0358149 C547.758365,58.1399947 548,59.2558603 548,62.2555408 L548,62.2555408 L548,94.7444592 C548,97.7441397 547.758365,98.8600053 547.167843,99.9641851 C546.659771,100.914197 545.914197,101.659771 544.964185,102.167843 C543.860005,102.758365 542.74414,103 539.744459,103 L539.744459,103 L423.255541,103 C420.25586,103 419.139995,102.758365 418.035815,102.167843 C417.085803,101.659771 416.340229,100.914197 415.832157,99.9641851 C415.241635,98.8600053 415,97.7441397 415,94.7444592 L415.001,61.9299002 C415.018377,59.1732196 415.263507,58.0990992 415.832157,57.0358149 C416.340229,56.0858034 417.085803,55.3402289 418.035815,54.8321572 C419.139995,54.2416354 420.25586,54 423.255541,54 Z" id="Rectangle" stroke="#FFA0BB" stroke-width="4"></path>
        <use id="Rectangle" stroke="#37C8DA" mask="url(#mask-6)" stroke-width="4" stroke-dasharray="4" xlink:href="#path-5"></use>
        <path d="M423.255541,177 L539.744459,177 C543.310534,177 544.603679,177.371302 545.907383,178.068531 C547.211087,178.765759 548.234241,179.788913 548.931469,181.092617 C549.628698,182.396321 550,183.689466 550,187.255541 L550,219.744459 C550,223.310534 549.628698,224.603679 548.931469,225.907383 C548.234241,227.211087 547.211087,228.234241 545.907383,228.931469 C544.603679,229.628698 543.310534,230 539.744459,230 L423.255541,230 C419.689466,230 418.396321,229.628698 417.092617,228.931469 C415.788913,228.234241 414.765759,227.211087 414.068531,225.907383 C413.371302,224.603679 413,223.310534 413,219.744459 L413,187.255541 C413,183.689466 413.371302,182.396321 414.068531,181.092617 C414.765759,179.788913 415.788913,178.765759 417.092617,178.068531 C418.396321,177.371302 419.689466,177 423.255541,177 Z" id="Rectangle" fill="#FFA0BB"></path>
        <text id="OS-Kernel" font-family="HelveticaNeue, Helvetica Neue" font-size="14" font-weight="normal" letter-spacing="0.0933333333" fill="#0D0D0D">
            <tspan x="449.688" y="209">OS Kernel</tspan>
        </text>
        <text id="/bin-/lib-/etc" font-family="HelveticaNeue, Helvetica Neue" font-size="14" font-weight="normal" letter-spacing="0.0933333333" fill="#0D0D0D">
            <tspan x="440.882667" y="146">/bin /lib /etc</tspan>
        </text>
        <text id="Application" font-family="HelveticaNeue, Helvetica Neue" font-size="14" font-weight="normal" letter-spacing="0.0933333333" fill="#0D0D0D">
            <tspan x="446.353667" y="83">Application</tspan>
        </text>
    </g>
</svg>